<?xml version="1.0" standalone="no"?>
<!DOCTYPE svg PUBLIC "-//W3C//DTD SVG 20010904//EN"
 "http://www.w3.org/TR/2001/REC-SVG-20010904/DTD/svg10.dtd">
<svg version="1.0" xmlns="http://www.w3.org/2000/svg"
 width="939.000000pt" height="144.000000pt" viewBox="0 0 939.000000 144.000000"
 preserveAspectRatio="xMidYMid meet">

<g transform="translate(0.000000,144.000000) scale(0.100000,-0.100000)"
fill="#000000" stroke="none">
<path d="M3355 1332 c-197 -69 -305 -281 -305 -602 1 -268 88 -480 236 -566
61 -36 173 -57 264 -50 164 12 289 87 354 215 34 65 67 222 73 348 l6 122
-222 1 -221 0 0 -100 0 -100 99 0 98 0 -8 -47 c-23 -120 -74 -206 -139 -233
-41 -17 -125 -8 -158 17 -46 34 -91 101 -113 171 -33 103 -38 311 -10 422 25
102 60 162 111 196 120 80 262 7 286 -146 l7 -42 118 3 c64 2 121 7 124 11 4
4 0 37 -9 74 -43 170 -134 271 -281 310 -73 20 -248 17 -310 -4z"/>
<path d="M8025 1337 c-149 -50 -247 -167 -297 -356 -28 -108 -35 -326 -15
-446 41 -230 183 -385 382 -415 258 -39 478 129 531 407 17 91 20 317 4 403
-17 94 -47 170 -95 240 -51 75 -93 111 -173 148 -50 23 -72 26 -177 29 -80 2
-133 -2 -160 -10z m222 -198 c62 -23 109 -89 134 -189 22 -86 19 -359 -5 -435
-26 -87 -51 -130 -93 -162 -32 -25 -45 -28 -112 -28 -63 0 -81 4 -108 23 -70
50 -110 160 -119 332 -13 223 41 401 136 451 39 21 122 25 167 8z"/>
<path d="M1595 1332 c-3 -3 -5 -275 -5 -604 l0 -598 310 0 310 0 0 105 0 105
-195 0 -195 0 0 499 0 500 -110 -1 c-60 0 -112 -3 -115 -6z"/>
<path d="M4910 735 l0 -605 115 0 115 0 2 253 3 252 178 3 177 2 0 -255 0
-255 115 0 115 0 0 605 0 605 -115 0 -115 0 0 -250 0 -250 -180 0 -180 0 0
250 0 250 -115 0 -115 0 0 -605z"/>
<path d="M5890 735 l0 -605 115 0 115 0 0 605 0 605 -115 0 -115 0 0 -605z"/>
<path d="M6231 1333 c0 -4 53 -276 117 -603 l118 -595 159 0 160 0 84 404 c56
266 88 397 93 385 4 -10 44 -190 88 -399 45 -209 85 -383 89 -388 4 -4 77 -6
162 -5 l154 3 27 135 c69 344 208 1054 208 1061 0 5 -52 9 -115 9 -111 0 -115
-1 -120 -22 -10 -43 -133 -683 -146 -761 -7 -42 -15 -77 -19 -77 -3 0 -20 66
-38 148 -30 130 -133 601 -148 675 l-6 27 -134 0 c-130 0 -134 -1 -139 -22 -6
-27 -138 -628 -163 -740 -9 -43 -19 -78 -23 -78 -4 0 -41 177 -83 393 -42 215
-80 406 -84 422 l-8 30 -117 3 c-64 1 -117 -1 -116 -5z"/>
<path d="M50 730 l0 -600 115 0 115 0 0 245 0 245 165 0 166 0 -3 98 -3 97
-162 3 -163 2 0 150 0 150 195 0 195 0 0 105 0 105 -310 0 -310 0 0 -600z"/>
<path d="M810 730 l0 -600 310 0 310 0 0 105 0 105 -195 0 -195 0 0 150 0 150
165 0 165 0 0 100 0 100 -165 0 -165 0 0 140 0 140 195 0 196 0 -2 105 -1 105
-309 0 -309 0 0 -600z"/>
<path d="M2330 730 l0 -600 315 0 315 0 0 105 0 105 -200 0 -201 0 3 148 3
147 168 3 167 2 0 100 0 100 -170 0 -170 0 0 140 0 140 194 0 195 0 3 101 c2
55 1 103 -1 105 -2 2 -143 4 -313 4 l-308 0 0 -600z"/>
<path d="M4122 733 l3 -598 313 -3 312 -2 0 105 0 105 -200 0 -201 0 3 148 3
147 168 3 167 2 0 100 0 100 -170 0 -170 0 0 140 0 140 195 0 195 0 0 105 0
105 -310 0 -310 0 2 -597z"/>
<path d="M8630 1225 l0 -105 130 0 130 0 0 -495 0 -495 115 0 115 0 0 495 0
495 125 0 125 0 0 105 0 105 -370 0 -370 0 0 -105z"/>
</g>
</svg>
